:FULLY-SPECIFIED
:FORCE-ALL-JOINTS-BE-3DOF
:DEGREES
577
root 7.09409 15.7809 -3.39789 -149.705 71.9438 -154.364
lfemur -21.679 4.27896 -17.3503
ltibia 57.3201 0 0
lfoot -34.4574 2.7883 0
ltoes -1.98563 0 0
rfemur -45.9343 -7.64649 8.40594
rtibia 54.1933 0 0
rfoot 5.75433 5.24052 0
rtoes -26.9451 0 0
lowerback 7.19461 -0.982049 -3.08152
upperback 3.29031 -1.19273 3.47931
thorax -0.464398 -0.560922 5.4238
lowerneck -4.0431 -13.8862 -4.30891
upperneck 10.6034 -18.9907 6.71759
head 4.91846 -9.12349 1.54822
lclavicle 2.68327e-14 3.43705e-15 0
lhumerus -34.1585 -18.5913 91.7673
lradius 52.9861 0 0
lwrist 25.8154 0 0
lhand -22.3001 -3.46819 0
lfingers 7.12502 0 0
lthumb 4.11855 26.4507 0
rclavicle 2.68327e-14 3.43705e-15 0
rhumerus 22.1696 16.9881 -76.2245
rradius 134.268 0 0
rwrist -44.2166 0 0
rhand -26.6147 -20.1527 0
rfingers 7.12502 0 0
rthumb -0.0479543 -770.131 0
578
root 7.03513 15.8275 -3.39798 -148.114 73.0456 -152.829
lfemur -21.3186 4.501 -17.4667
ltibia 56.3521 0 0
lfoot -34.253 3.53256 0
ltoes -1.74341 0 0
rfemur -45.9527 -8.00492 8.92587
rtibia 54.414 0 0
rfoot 6.1016 5.4752 0
rtoes -26.3867 0 0
lowerback 7.00855 -0.993856 -3.23725
upperback 3.19722 -1.22977 3.39058
thorax -0.452499 -0.58426 5.41898
lowerneck -4.15087 -13.8306 -4.27191
upperneck 10.7352 -18.9248 6.68832
head 4.96661 -9.08495 1.52755
lclavicle 2.44361e-14 1.15423e-15 0
lhumerus -33.508 -19.1828 91.2651
lradius 52.9993 0 0
lwrist 25.7202 0 0
lhand -22.0982 -3.37993 0
lfingers 7.12502 0 0
lthumb 4.31359 26.5356 0
rclavicle 2.44361e-14 1.15423e-15 0
rhumerus 22.407 16.9616 -75.9739
rradius 134.237 0 0
rwrist -44.2199 0 0
rhand -26.5617 -20.0832 0
rfingers 7.12502 0 0
rthumb 0.00326484 -770.062 0
579
root 6.97616 15.8741 -3.39807 -146.523 74.1474 -151.294
lfemur -20.9582 4.72304 -17.5832
ltibia 55.3841 0 0
lfoot -34.0487 4.27683 0
ltoes -1.50119 0 0
rfemur -45.971 -8.36335 9.44579
rtibia 54.6348 0 0
rfoot 6.44888 5.70988 0
rtoes -25.8282 0 0
lowerback 6.82249 -1.00566 -3.39297
upperback 3.10413 -1.26681 3.30186
thorax -0.440601 -0.607599 5.41416
lowerneck -4.25863 -13.775 -4.23492
upperneck 10.867 -18.8589 6.65906
head 5.01475 -9.0464 1.50687
lclavicle 2.20394e-14 -1.12859e-15 0
lhumerus -32.8574 -19.7743 90.7629
lradius 53.0125 0 0
lwrist 25.625 0 0
lhand -21.8962 -3.29167 0
lfingers 7.12502 0 0
lthumb 4.50862 26.6205 0
rclavicle 2.20394e-14 -1.12859e-15 0
rhumerus 22.6445 16.9352 -75.7233
rradius 134.206 0 0
rwrist -44.2232 0 0
rhand -26.5087 -20.0137 0
rfingers 7.12502 0 0
rthumb 0.0544839 -769.992 0
580
root 6.9172 15.9207 -3.39816 -144.932 75.2493 -149.76
lfemur -20.5978 4.94508 -17.6997
ltibia 54.416 0 0
lfoot -33.8443 5.02109 0
ltoes -1.25897 0 0
rfemur -45.9894 -8.72178 9.96572
rtibia 54.8556 0 0
rfoot 6.79615 5.94456 0
rtoes -25.2697 0 0
lowerback 6.63643 -1.01747 -3.5487
upperback 3.01104 -1.30385 3.21314
thorax -0.428703 -0.630938 5.40935
lowerneck -4.3664 -13.7194 -4.19793
upperneck 10.9988 -18.7929 6.6298
head 5.06289 -9.00785 1.48619
lclavicle 1.96428e-14 -3.41141e-15 0
lhumerus -32.2069 -20.3657 90.2607
lradius 53.0257 0 0
lwrist 25.5298 0 0
lhand -21.6942 -3.20341 0
lfingers 7.12502 0 0
lthumb 4.70366 26.7054 0
rclavicle 1.96428e-14 -3.41141e-15 0
rhumerus 22.8819 16.9087 -75.4726
rradius 134.175 0 0
rwrist -44.2265 0 0
rhand -26.4556 -19.9441 0
rfingers 7.12502 0 0
rthumb 0.105703 -769.923 0
581
root 6.85823 15.9673 -3.39825 -143.342 76.3511 -148.225
lfemur -20.2374 5.16712 -17.8161
ltibia 53.448 0 0
lfoot -33.6399 5.76535 0
ltoes -1.01675 0 0
rfemur -46.0077 -9.08022 10.4857
rtibia 55.0763 0 0
rfoot 7.14343 6.17923 0
rtoes -24.7112 0 0
lowerback 6.45037 -1.02928 -3.70442
upperback 2.91795 -1.3409 3.12442
thorax -0.416805 -0.654277 5.40453
lowerneck -4.47417 -13.6638 -4.16094
upperneck 11.1306 -18.727 6.60053
head 5.11104 -8.96931 1.46552
lclavicle 1.72462e-14 -5.69423e-15 0
lhumerus -31.5563 -20.9572 89.7585
lradius 53.0389 0 0
lwrist 25.4346 0 0
lhand -21.4922 -3.11514 0
lfingers 7.12502 0 0
lthumb 4.8987 26.7904 0
rclavicle 1.72462e-14 -5.69423e-15 0
rhumerus 23.1193 16.8822 -75.222
rradius 134.143 0 0
rwrist -44.2299 0 0
rhand -26.4026 -19.8746 0
rfingers 7.12502 0 0
rthumb 0.156922 -769.853 0
582
root 6.79927 16.0139 -3.39834 -141.751 77.453 -146.69
lfemur -19.877 5.38916 -17.9326
ltibia 52.4799 0 0
lfoot -33.4355 6.50961 0
ltoes -0.774525 0 0
rfemur -46.0261 -9.43865 11.0056
rtibia 55.2971 0 0
rfoot 7.4907 6.41391 0
rtoes -24.1527 0 0
lowerback 6.26431 -1.04108 -3.86015
upperback 2.82486 -1.37794 3.0357
thorax -0.404906 -0.677615 5.39971
lowerneck -4.58194 -13.6082 -4.12395
upperneck 11.2624 -18.661 6.57127
head 5.15918 -8.93076 1.44484
lclavicle 1.48495e-14 -7.97705e-15 0
lhumerus -30.9058 -21.5487 89.2563
lradius 53.0521 0 0
lwrist 25.3394 0 0
lhand -21.2903 -3.02688 0
lfingers 7.12502 0 0
lthumb 5.09373 26.8753 0
rclavicle 1.48495e-14 -7.97705e-15 0
rhumerus 23.3567 16.8557 -74.9714
rradius 134.112 0 0
rwrist -44.2332 0 0
rhand -26.3496 -19.805 0
rfingers 7.12502 0 0
rthumb 0.208141 -769.784 0
583
root 6.74031 16.0604 -3.39843 -140.16 78.5548 -145.156
lfemur -19.5166 5.6112 -18.049
ltibia 51.5119 0 0
lfoot -33.2311 7.25387 0
ltoes -0.532305 0 0
rfemur -46.0445 -9.79708 11.5255
rtibia 55.5178 0 0
rfoot 7.83798 6.64859 0
rtoes -23.5943 0 0
lowerback 6.07825 -1.05289 -4.01588
upperback 2.73178 -1.41498 2.94697
thorax -0.393008 -0.700954 5.3949
lowerneck -4.68971 -13.5526 -4.08695
upperneck 11.3941 -18.5951 6.542
head 5.20733 -8.89222 1.42417
lclavicle 1.24529e-14 -1.02599e-14 0
lhumerus -30.2553 -22.1401 88.7541
lradius 53.0653 0 0
lwrist 25.2441 0 0
lhand -21.0883 -2.93862 0
lfingers 7.12502 0 0
lthumb 5.28877 26.9602 0
rclavicle 1.24529e-14 -1.02599e-14 0
rhumerus 23.5941 16.8292 -74.7207
rradius 134.081 0 0
rwrist -44.2365 0 0
rhand -26.2965 -19.7355 0
rfingers 7.12502 0 0
rthumb 0.25936 -769.714 0
584
root 6.68134 16.107 -3.39852 -138.569 79.6566 -143.621
lfemur -19.1562 5.83324 -18.1655
ltibia 50.5439 0 0
lfoot -33.0267 7.99813 0
ltoes -0.290084 0 0
rfemur -46.0628 -10.1555 12.0454
rtibia 55.7386 0 0
rfoot 8.18525 6.88327 0
rtoes -23.0358 0 0
lowerback 5.89219 -1.0647 -4.1716
upperback 2.63869 -1.45202 2.85825
thorax -0.38111 -0.724293 5.39008
lowerneck -4.79748 -13.497 -4.04996
upperneck 11.5259 -18.5292 6.51274
head 5.25547 -8.85367 1.40349
lclavicle 1.00563e-14 -1.25427e-14 0
lhumerus -29.6047 -22.7316 88.2519
lradius 53.0785 0 0
lwrist 25.1489 0 0
lhand -20.8863 -2.85036 0
lfingers 7.12502 0 0
lthumb 5.4838 27.0451 0
rclavicle 1.00563e-14 -1.25427e-14 0
rhumerus 23.8316 16.8027 -74.4701
rradius 134.05 0 0
rwrist -44.2398 0 0
rhand -26.2435 -19.666 0
rfingers 7.12502 0 0
rthumb 0.310579 -769.645 0
585
root 6.62238 16.1536 -3.39861 -136.979 80.7585 -142.086
lfemur -18.7959 6.05528 -18.282
ltibia 49.5758 0 0
lfoot -32.8223 8.74239 0
ltoes -0.0478632 0 0
rfemur -46.0812 -10.5139 12.5654
rtibia 55.9594 0 0
rfoot 8.53253 7.11794 0
rtoes -22.4773 0 0
lowerback 5.70613 -1.07651 -4.32733
upperback 2.5456 -1.48907 2.76953
thorax -0.369211 -0.747631 5.38526
lowerneck -4.90525 -13.4414 -4.01297
upperneck 11.6577 -18.4632 6.48348
head 5.30361 -8.81512 1.38282
lclavicle 7.65962e-15 -1.48255e-14 0
lhumerus -28.9542 -23.3231 87.7497
lradius 53.0918 0 0
lwrist 25.0537 0 0
lhand -20.6844 -2.7621 0
lfingers 7.12502 0 0
lthumb 5.67884 27.1301 0
rclavicle 7.65962e-15 -1.48255e-14 0
rhumerus 24.069 16.7762 -74.2195
rradius 134.018 0 0
rwrist -44.2432 0 0
rhand -26.1905 -19.5964 0
rfingers 7.12502 0 0
rthumb 0.361799 -769.575 0
586
root 6.56342 16.2002 -3.3987 -135.388 81.8603 -140.552
lfemur -18.4355 6.27732 -18.3984
ltibia 48.6078 0 0
lfoot -32.6179 9.48665 0
ltoes 0.194357 0 0
rfemur -46.0996 -10.8724 13.0853
rtibia 56.1801 0 0
rfoot 8.8798 7.35262 0
rtoes -21.9188 0 0
lowerback 5.52007 -1.08831 -4.48306
upperback 2.45251 -1.52611 2.68081
thorax -0.357313 -0.77097 5.38045
lowerneck -5.01302 -13.3858 -3.97598
upperneck 11.7895 -18.3973 6.45421
head 5.35176 -8.77658 1.36214
lclavicle 5.26298e-15 -1.71083e-14 0
lhumerus -28.3037 -23.9145 87.2475
lradius 53.105 0 0
lwrist 24.9585 0 0
lhand -20.4824 -2.67384 0
lfingers 7.12502 0 0
lthumb 5.87388 27.215 0
rclavicle 5.26298e-15 -1.71083e-14 0
rhumerus 24.3064 16.7497 -73.9688
rradius 133.987 0 0
rwrist -44.2465 0 0
rhand -26.1374 -19.5269 0
rfingers 7.12502 0 0
rthumb 0.413018 -769.506 0
587
root 6.50445 16.2468 -3.39879 -133.797 82.9622 -139.017
lfemur -18.0751 6.49936 -18.5149
ltibia 47.6397 0 0
lfoot -32.4136 10.2309 0
ltoes 0.436578 0 0
rfemur -46.1179 -11.2308 13.6052
rtibia 56.4009 0 0
rfoot 9.22708 7.5873 0
rtoes -21.3603 0 0
lowerback 5.33401 -1.10012 -4.63878
upperback 2.35942 -1.56315 2.59209
thorax -0.345415 -0.794309 5.37563
lowerneck -5.12078 -13.3302 -3.93899
upperneck 11.9213 -18.3313 6.42495
head 5.3999 -8.73803 1.34147
lclavicle 2.86634e-15 -1.93911e-14 0
lhumerus -27.6531 -24.506 86.7453
lradius 53.1182 0 0
lwrist 24.8633 0 0
lhand -20.2804 -2.58557 0
lfingers 7.12502 0 0
lthumb 6.06891 27.2999 0
rclavicle 2.86634e-15 -1.93911e-14 0
rhumerus 24.5438 16.7233 -73.7182
rradius 133.956 0 0
rwrist -44.2498 0 0
rhand -26.0844 -19.4573 0
rfingers 7.12502 0 0
rthumb 0.464237 -769.436 0
588
root 6.44549 16.2934 -3.39888 -132.206 84.064 -137.482
lfemur -17.7147 6.7214 -18.6314
ltibia 46.6717 0 0
lfoot -32.2092 10.9752 0
ltoes 0.678799 0 0
rfemur -46.1363 -11.5892 14.1251
rtibia 56.6217 0 0
rfoot 9.57435 7.82198 0
rtoes -20.8019 0 0
lowerback 5.14795 -1.11193 -4.79451
upperback 2.26633 -1.60019 2.50336
thorax -0.333517 -0.817648 5.37081
lowerneck -5.22855 -13.2746 -3.90199
upperneck 12.0531 -18.2654 6.39569
head 5.44804 -8.69948 1.32079
lclavicle 4.69705e-16 -2.1674e-14 0
lhumerus -27.0026 -25.0975 86.2431
lradius 53.1314 0 0
lwrist 24.7681 0 0
lhand -20.0784 -2.49731 0
lfingers 7.12502 0 0
lthumb 6.26395 27.3848 0
rclavicle 4.69705e-16 -2.1674e-14 0
rhumerus 24.7813 16.6968 -73.4676
rradius 133.925 0 0
rwrist -44.2531 0 0
rhand -26.0314 -19.3878 0
rfingers 7.12502 0 0
rthumb 0.515456 -769.367 0
